<mxfile host="app.diagrams.net" agent="Mozilla/5.0 (Windows NT 10.0; Win64; x64) AppleWebKit/537.36 (KHTML, like Gecko) Chrome/132.0.0.0 Safari/537.36 Edg/132.0.0.0" version="26.0.11">
  <diagram name="Page-1" id="CKeM4P2nxKYVu4VMVRPb">
    <mxGraphModel dx="794" dy="458" grid="1" gridSize="10" guides="1" tooltips="1" connect="1" arrows="1" fold="1" page="1" pageScale="1" pageWidth="1100" pageHeight="850" math="0" shadow="0">
      <root>
        <mxCell id="0" />
        <mxCell id="1" parent="0" />
        <mxCell id="-53Uf4TQHLvq_ebUNMab-22" value="" style="endArrow=block;dashed=1;endFill=0;endSize=12;html=1;rounded=0;" edge="1" parent="1">
          <mxGeometry width="160" relative="1" as="geometry">
            <mxPoint x="446" y="335" as="sourcePoint" />
            <mxPoint x="315" y="335" as="targetPoint" />
          </mxGeometry>
        </mxCell>
        <mxCell id="-53Uf4TQHLvq_ebUNMab-23" value="Success message" style="edgeLabel;html=1;align=center;verticalAlign=middle;resizable=0;points=[];" connectable="0" vertex="1" parent="-53Uf4TQHLvq_ebUNMab-22">
          <mxGeometry x="-0.0021" y="1" relative="1" as="geometry">
            <mxPoint y="-9" as="offset" />
          </mxGeometry>
        </mxCell>
        <mxCell id="-53Uf4TQHLvq_ebUNMab-18" value="" style="endArrow=block;dashed=1;endFill=0;endSize=12;html=1;rounded=0;exitX=0.433;exitY=0.25;exitDx=0;exitDy=0;exitPerimeter=0;" edge="1" parent="1">
          <mxGeometry width="160" relative="1" as="geometry">
            <mxPoint x="454.8299999999999" y="254.5" as="sourcePoint" />
            <mxPoint x="40" y="254.5" as="targetPoint" />
          </mxGeometry>
        </mxCell>
        <mxCell id="-53Uf4TQHLvq_ebUNMab-19" value="Send Notification" style="edgeLabel;html=1;align=center;verticalAlign=middle;resizable=0;points=[];" connectable="0" vertex="1" parent="-53Uf4TQHLvq_ebUNMab-18">
          <mxGeometry x="0.0253" y="2" relative="1" as="geometry">
            <mxPoint y="-10" as="offset" />
          </mxGeometry>
        </mxCell>
        <mxCell id="-53Uf4TQHLvq_ebUNMab-1" value="" style="shape=umlLifeline;perimeter=lifelinePerimeter;whiteSpace=wrap;html=1;container=1;dropTarget=0;collapsible=0;recursiveResize=0;outlineConnect=0;portConstraint=eastwest;newEdgeStyle={&quot;curved&quot;:0,&quot;rounded&quot;:0};participant=umlActor;size=40;" vertex="1" parent="1">
          <mxGeometry x="25" y="76" width="20" height="420" as="geometry" />
        </mxCell>
        <mxCell id="-53Uf4TQHLvq_ebUNMab-2" value="" style="shape=umlLifeline;perimeter=lifelinePerimeter;whiteSpace=wrap;html=1;container=1;dropTarget=0;collapsible=0;recursiveResize=0;outlineConnect=0;portConstraint=eastwest;newEdgeStyle={&quot;curved&quot;:0,&quot;rounded&quot;:0};participant=umlActor;" vertex="1" parent="1">
          <mxGeometry x="115" y="76" width="20" height="420" as="geometry" />
        </mxCell>
        <mxCell id="-53Uf4TQHLvq_ebUNMab-3" value="Frontend" style="shape=umlLifeline;perimeter=lifelinePerimeter;whiteSpace=wrap;html=1;container=1;collapsible=0;recursiveResize=0;outlineConnect=0;rounded=1;shadow=0;comic=0;labelBackgroundColor=none;strokeWidth=1;fontFamily=Verdana;fontSize=12;align=center;" vertex="1" parent="1">
          <mxGeometry x="260" y="80" width="100" height="420" as="geometry" />
        </mxCell>
        <mxCell id="-53Uf4TQHLvq_ebUNMab-4" value="" style="html=1;points=[];perimeter=orthogonalPerimeter;rounded=0;shadow=0;comic=0;labelBackgroundColor=none;strokeWidth=1;fontFamily=Verdana;fontSize=12;align=center;" vertex="1" parent="-53Uf4TQHLvq_ebUNMab-3">
          <mxGeometry x="45" y="80" width="10" height="300" as="geometry" />
        </mxCell>
        <mxCell id="-53Uf4TQHLvq_ebUNMab-5" value="Server" style="shape=umlLifeline;perimeter=lifelinePerimeter;whiteSpace=wrap;html=1;container=1;collapsible=0;recursiveResize=0;outlineConnect=0;rounded=1;shadow=0;comic=0;labelBackgroundColor=none;strokeWidth=1;fontFamily=Verdana;fontSize=12;align=center;" vertex="1" parent="1">
          <mxGeometry x="400" y="80" width="100" height="420" as="geometry" />
        </mxCell>
        <mxCell id="-53Uf4TQHLvq_ebUNMab-6" value="" style="html=1;points=[];perimeter=orthogonalPerimeter;rounded=0;shadow=0;comic=0;labelBackgroundColor=none;strokeWidth=1;fontFamily=Verdana;fontSize=12;align=center;fillColor=#FFFFFF;fillStyle=solid;" vertex="1" parent="-53Uf4TQHLvq_ebUNMab-5">
          <mxGeometry x="45" y="80" width="10" height="300" as="geometry" />
        </mxCell>
        <mxCell id="-53Uf4TQHLvq_ebUNMab-7" value="Database" style="shape=umlLifeline;perimeter=lifelinePerimeter;whiteSpace=wrap;html=1;container=1;collapsible=0;recursiveResize=0;outlineConnect=0;rounded=1;shadow=0;comic=0;labelBackgroundColor=none;strokeWidth=1;fontFamily=Verdana;fontSize=12;align=center;" vertex="1" parent="1">
          <mxGeometry x="540" y="80" width="100" height="410" as="geometry" />
        </mxCell>
        <mxCell id="-53Uf4TQHLvq_ebUNMab-8" value="" style="html=1;points=[];perimeter=orthogonalPerimeter;rounded=0;shadow=0;comic=0;labelBackgroundColor=none;strokeWidth=1;fontFamily=Verdana;fontSize=12;align=center;" vertex="1" parent="1">
          <mxGeometry x="585" y="160" width="10" height="300" as="geometry" />
        </mxCell>
        <mxCell id="-53Uf4TQHLvq_ebUNMab-9" value="Update database" style="html=1;verticalAlign=bottom;endArrow=block;labelBackgroundColor=none;fontFamily=Verdana;fontSize=12;edgeStyle=elbowEdgeStyle;elbow=vertical;" edge="1" parent="1">
          <mxGeometry relative="1" as="geometry">
            <mxPoint x="455" y="222" as="sourcePoint" />
            <Array as="points">
              <mxPoint x="460" y="222" />
            </Array>
            <mxPoint x="585" y="222" as="targetPoint" />
          </mxGeometry>
        </mxCell>
        <mxCell id="-53Uf4TQHLvq_ebUNMab-10" value="Open chat for an item" style="html=1;verticalAlign=bottom;endArrow=block;labelBackgroundColor=none;fontFamily=Verdana;fontSize=12;edgeStyle=elbowEdgeStyle;elbow=horizontal;exitX=0.667;exitY=0.087;exitDx=0;exitDy=0;exitPerimeter=0;" edge="1" parent="1">
          <mxGeometry relative="1" as="geometry">
            <mxPoint x="124.99999999999996" y="190.00000000000003" as="sourcePoint" />
            <mxPoint x="305" y="190" as="targetPoint" />
          </mxGeometry>
        </mxCell>
        <mxCell id="-53Uf4TQHLvq_ebUNMab-11" value="Create chat" style="html=1;verticalAlign=bottom;endArrow=block;entryX=0;entryY=0;labelBackgroundColor=none;fontFamily=Verdana;fontSize=12;edgeStyle=elbowEdgeStyle;elbow=vertical;" edge="1" parent="1">
          <mxGeometry relative="1" as="geometry">
            <mxPoint x="315" y="206" as="sourcePoint" />
            <mxPoint x="445" y="206.0000000000008" as="targetPoint" />
          </mxGeometry>
        </mxCell>
        <mxCell id="-53Uf4TQHLvq_ebUNMab-12" value="" style="html=1;points=[];perimeter=orthogonalPerimeter;rounded=0;shadow=0;comic=0;labelBackgroundColor=none;strokeWidth=1;fontFamily=Verdana;fontSize=12;align=center;" vertex="1" parent="1">
          <mxGeometry x="30" y="160" width="10" height="300" as="geometry" />
        </mxCell>
        <mxCell id="-53Uf4TQHLvq_ebUNMab-13" value="Item poster" style="text;strokeColor=none;align=center;fillColor=none;html=1;verticalAlign=middle;whiteSpace=wrap;rounded=0;" vertex="1" parent="1">
          <mxGeometry y="110" width="70" height="30" as="geometry" />
        </mxCell>
        <mxCell id="-53Uf4TQHLvq_ebUNMab-14" value="http request" style="text;strokeColor=none;align=center;fillColor=none;html=1;verticalAlign=middle;whiteSpace=wrap;rounded=0;" vertex="1" parent="1">
          <mxGeometry x="341" y="205" width="80" height="21" as="geometry" />
        </mxCell>
        <mxCell id="-53Uf4TQHLvq_ebUNMab-15" value="" style="html=1;points=[];perimeter=orthogonalPerimeter;rounded=0;shadow=0;comic=0;labelBackgroundColor=none;strokeWidth=1;fontFamily=Verdana;fontSize=12;align=center;" vertex="1" parent="1">
          <mxGeometry x="120" y="160" width="10" height="300" as="geometry" />
        </mxCell>
        <mxCell id="-53Uf4TQHLvq_ebUNMab-16" value="Chat opener" style="text;strokeColor=none;align=center;fillColor=none;html=1;verticalAlign=middle;whiteSpace=wrap;rounded=0;" vertex="1" parent="1">
          <mxGeometry x="90" y="110" width="70" height="29.999999999999996" as="geometry" />
        </mxCell>
        <mxCell id="-53Uf4TQHLvq_ebUNMab-17" value="alt" style="shape=umlFrame;whiteSpace=wrap;html=1;pointerEvents=0;" vertex="1" parent="1">
          <mxGeometry y="280" width="620" height="160" as="geometry" />
        </mxCell>
        <mxCell id="-53Uf4TQHLvq_ebUNMab-20" value="" style="endArrow=none;dashed=1;html=1;dashPattern=1 3;strokeWidth=2;rounded=0;exitX=0.002;exitY=0.496;exitDx=0;exitDy=0;exitPerimeter=0;entryX=0.996;entryY=0.504;entryDx=0;entryDy=0;entryPerimeter=0;" edge="1" parent="1" source="-53Uf4TQHLvq_ebUNMab-17" target="-53Uf4TQHLvq_ebUNMab-17">
          <mxGeometry width="50" height="50" relative="1" as="geometry">
            <mxPoint x="280" y="280" as="sourcePoint" />
            <mxPoint x="330" y="230" as="targetPoint" />
          </mxGeometry>
        </mxCell>
        <mxCell id="-53Uf4TQHLvq_ebUNMab-21" value="[Chat Opened Successfully]" style="text;strokeColor=none;align=center;fillColor=none;html=1;verticalAlign=middle;whiteSpace=wrap;rounded=0;" vertex="1" parent="1">
          <mxGeometry x="130" y="320" width="160" height="30" as="geometry" />
        </mxCell>
        <mxCell id="-53Uf4TQHLvq_ebUNMab-24" value="[Chat Opening Failed]" style="text;strokeColor=none;align=center;fillColor=none;html=1;verticalAlign=middle;whiteSpace=wrap;rounded=0;" vertex="1" parent="1">
          <mxGeometry x="130" y="390" width="160" height="30" as="geometry" />
        </mxCell>
        <mxCell id="-53Uf4TQHLvq_ebUNMab-25" value="" style="endArrow=block;dashed=1;endFill=0;endSize=12;html=1;rounded=0;" edge="1" parent="1">
          <mxGeometry width="160" relative="1" as="geometry">
            <mxPoint x="445" y="405" as="sourcePoint" />
            <mxPoint x="315" y="405" as="targetPoint" />
          </mxGeometry>
        </mxCell>
        <mxCell id="-53Uf4TQHLvq_ebUNMab-26" value="Error" style="edgeLabel;html=1;align=center;verticalAlign=middle;resizable=0;points=[];" connectable="0" vertex="1" parent="-53Uf4TQHLvq_ebUNMab-25">
          <mxGeometry x="-0.0021" y="1" relative="1" as="geometry">
            <mxPoint x="1" y="-9" as="offset" />
          </mxGeometry>
        </mxCell>
      </root>
    </mxGraphModel>
  </diagram>
</mxfile>
